<svg xmlns="http://www.w3.org/2000/svg" width="193" height="51" viewBox="0 0 193 51" fill="none"><path d="M38.51 27.82V2.09003C38.51 1.64003 38.87 1.28003 39.32 1.28003H49.92C51.66 1.28003 53.14 1.54003 54.33 2.06003C55.53 2.58003 56.43 3.36001 57.05 4.39001C57.66 5.42001 57.97 6.68003 57.97 8.16003C57.97 9.64003 57.56 10.91 56.74 11.95C56 12.9 54.99 13.57 53.72 13.98C53.52 14.04 53.32 13.9 53.32 13.69C53.32 13.48 53.51 13.35 53.7 13.4C54.77 13.67 55.71 14.1 56.52 14.7C57.43 15.36 58.14 16.19 58.65 17.18C59.16 18.17 59.41 19.3 59.41 20.58C59.41 21.86 59.21 23.03 58.8 24.04C58.4 25.04 57.8 25.88 57 26.56C56.21 27.24 55.25 27.75 54.13 28.1C53.01 28.45 51.73 28.63 50.3 28.63H39.31C38.86 28.63 38.5 28.27 38.5 27.82M42.73 12.61H49.69C50.47 12.61 51.17 12.45 51.78 12.14C52.39 11.83 52.87 11.4 53.23 10.85C53.58 10.3 53.76 9.68003 53.76 8.97003C53.76 7.80003 53.37 6.90002 52.59 6.27002C51.81 5.65002 50.69 5.33002 49.23 5.33002H42.74V12.6L42.73 12.61ZM42.73 24.57H50.08C51.15 24.57 52.05 24.41 52.8 24.1C53.54 23.79 54.12 23.32 54.52 22.71C54.92 22.1 55.12 21.36 55.12 20.5C55.12 19.69 54.91 19 54.48 18.43C54.05 17.86 53.44 17.42 52.66 17.12C51.88 16.82 50.95 16.67 49.89 16.67H42.74V24.56L42.73 24.57Z" fill="white"></path><path d="M61.72 28.18V1.60999C61.72 1.33999 61.95 1.12 62.23 1.12H65.23C65.51 1.12 65.74 1.33999 65.74 1.60999V28.18C65.74 28.43 65.53 28.63 65.26 28.63H62.19C61.93 28.63 61.71 28.43 61.71 28.18" fill="white"></path><path d="M76.1 29.02C74.64 29.02 73.37 28.68 72.29 28C71.21 27.32 70.38 26.37 69.79 25.15C69.2 23.93 68.91 22.47 68.91 20.77V8.10999H72.94V19.68C72.94 20.88 73.13 21.91 73.51 22.79C73.89 23.66 74.43 24.33 75.15 24.8C75.87 25.27 76.73 25.5 77.75 25.5C78.51 25.5 79.2 25.38 79.82 25.13C80.44 24.88 80.99 24.54 81.44 24.1C81.9 23.66 82.25 23.12 82.51 22.5C82.77 21.87 82.9 21.2 82.9 20.47V8.12H86.92V28.13C86.92 28.41 86.69 28.64 86.41 28.64H83.4C83.12 28.64 82.89 28.41 82.89 28.13V24.34L83.59 23.87C83.28 24.83 82.75 25.71 82.01 26.49C81.27 27.27 80.39 27.89 79.37 28.35C78.35 28.81 77.26 29.03 76.09 29.03" fill="white"></path><path d="M107.56 36.65V8.79001C107.56 8.42001 107.86 8.12003 108.23 8.12003H110.96C111.33 8.12003 111.63 8.42001 111.63 8.79001V12.81L111.01 12.46C111.17 11.68 111.61 10.93 112.34 10.21C113.07 9.49002 113.96 8.91001 115.02 8.45001C116.08 7.99001 117.16 7.77002 118.28 7.77002C120.13 7.77002 121.77 8.23001 123.2 9.14001C124.63 10.05 125.77 11.3 126.6 12.89C127.43 14.48 127.85 16.3 127.85 18.36C127.85 20.42 127.44 22.21 126.62 23.81C125.8 25.41 124.67 26.68 123.24 27.6C121.81 28.52 120.19 28.99 118.39 28.99C117.19 28.99 116.03 28.75 114.91 28.27C113.79 27.79 112.84 27.17 112.06 26.41C111.28 25.65 110.8 24.87 110.61 24.07L111.63 23.52V36.66C111.63 36.98 111.37 37.24 111.05 37.24H108.14C107.82 37.24 107.56 36.98 107.56 36.66M117.72 25.27C118.92 25.27 119.99 24.97 120.92 24.37C121.86 23.77 122.6 22.95 123.15 21.91C123.7 20.87 123.97 19.68 123.97 18.35C123.97 17.02 123.7 15.84 123.17 14.81C122.64 13.78 121.9 12.97 120.96 12.37C120.02 11.77 118.94 11.47 117.72 11.47C116.5 11.47 115.42 11.76 114.48 12.35C113.54 12.94 112.8 13.75 112.25 14.79C111.7 15.83 111.43 17.02 111.43 18.35C111.43 19.68 111.7 20.86 112.25 21.91C112.8 22.95 113.54 23.77 114.48 24.37C115.42 24.97 116.5 25.27 117.72 25.27Z" fill="white"></path><path d="M129.87 28.1999V8.53992C129.87 8.29992 130.06 8.10992 130.3 8.10992H133.51C133.74 8.10992 133.94 8.29992 133.94 8.53992V14.5599L133.55 12.9999C133.84 12.0099 134.33 11.1099 135.02 10.2999C135.71 9.48993 136.5 8.84992 137.4 8.38992C138.3 7.91992 139.23 7.68994 140.19 7.68994C140.63 7.68994 141.05 7.72994 141.46 7.80994C141.86 7.88994 142.18 7.97993 142.42 8.07993L141.36 12.4599C141.05 12.3299 140.7 12.2199 140.32 12.1299C139.94 12.0399 139.57 11.9899 139.21 11.9899C138.51 11.9899 137.83 12.1299 137.2 12.3999C136.56 12.6699 136 13.0499 135.52 13.5299C135.04 14.0099 134.65 14.5699 134.37 15.2099C134.08 15.8499 133.94 16.5499 133.94 17.2999V28.1999C133.94 28.4399 133.75 28.6299 133.51 28.6299H130.3C130.06 28.6299 129.87 28.4399 129.87 28.1999Z" fill="white"></path><path d="M144.51 28.17V8.12H148.54V28.17C148.54 28.42 148.33 28.63 148.08 28.63H144.98C144.73 28.63 144.52 28.42 144.52 28.17" fill="white"></path><path d="M151.79 28.6299V8.78992C151.79 8.41992 152.09 8.11993 152.46 8.11993H155.14C155.51 8.11993 155.81 8.41992 155.81 8.78992V12.3399L155.11 12.8099C155.37 11.8999 155.88 11.0599 156.63 10.2899C157.39 9.51992 158.28 8.89994 159.33 8.40994C160.37 7.92994 161.44 7.68994 162.53 7.68994C164.09 7.68994 165.4 7.99992 166.44 8.60992C167.48 9.21992 168.26 10.1499 168.78 11.3999C169.3 12.6499 169.56 14.2299 169.56 16.1299V28.6299H165.54V16.3999C165.54 15.2299 165.38 14.2599 165.07 13.4899C164.76 12.7199 164.28 12.1599 163.63 11.8099C162.98 11.4599 162.17 11.3099 161.21 11.3599C160.43 11.3599 159.71 11.4799 159.06 11.7299C158.41 11.9799 157.84 12.3199 157.36 12.7699C156.88 13.2199 156.5 13.7299 156.23 14.3099C155.96 14.8999 155.82 15.5299 155.82 16.1999V28.6299H151.79Z" fill="white"></path><path d="M181.88 37.6199C180.42 37.6199 178.97 37.3899 177.52 36.9399C176.07 36.4799 174.91 35.8899 174.02 35.1599L175.5 32.0299C176.02 32.4199 176.63 32.7699 177.34 33.0599C178.04 33.3599 178.79 33.5899 179.57 33.7599C180.35 33.9299 181.12 34.0099 181.88 34.0099C183.31 34.0099 184.51 33.7799 185.48 33.3099C186.44 32.8399 187.17 32.1499 187.67 31.2399C188.16 30.3299 188.41 29.1899 188.41 27.8399V23.8899L188.84 24.1599C188.71 24.9699 188.29 25.7399 187.57 26.4899C186.85 27.2299 185.96 27.8399 184.89 28.3099C183.82 28.7799 182.73 29.0099 181.61 29.0099C179.66 29.0099 177.92 28.5499 176.39 27.6199C174.87 26.6999 173.66 25.4299 172.78 23.8299C171.89 22.2299 171.45 20.3999 171.45 18.3399C171.45 16.2799 171.89 14.4499 172.76 12.8499C173.63 11.2499 174.83 9.98994 176.36 9.05994C177.88 8.13994 179.6 7.66992 181.5 7.66992C182.28 7.66992 183.04 7.76993 183.77 7.95993C184.5 8.15993 185.18 8.42994 185.8 8.77994C186.42 9.12994 186.98 9.51993 187.48 9.92993C187.97 10.3499 188.38 10.7899 188.69 11.2599C189 11.7299 189.2 12.1699 189.28 12.5899L188.42 12.8999V8.70993C188.42 8.36993 188.69 8.09995 189.03 8.09995H191.83C192.17 8.09995 192.44 8.37993 192.44 8.70993V27.3599C192.44 28.9999 192.2 30.4499 191.72 31.7199C191.24 32.9799 190.54 34.0499 189.63 34.9199C188.72 35.7899 187.61 36.4599 186.31 36.9099C185.01 37.3699 183.54 37.5899 181.9 37.5899M182.03 25.3099C183.31 25.3099 184.44 25.0099 185.43 24.4099C186.42 23.8099 187.19 22.9899 187.74 21.9499C188.29 20.9099 188.56 19.7099 188.56 18.3499C188.56 16.9899 188.28 15.7899 187.72 14.7399C187.16 13.6899 186.39 12.8599 185.42 12.2599C184.44 11.6599 183.32 11.3599 182.04 11.3599C180.76 11.3599 179.68 11.6699 178.7 12.2799C177.72 12.8899 176.96 13.7299 176.4 14.7799C175.84 15.8399 175.56 17.0299 175.56 18.3599C175.56 19.6899 175.84 20.8799 176.4 21.9399C176.96 22.9899 177.73 23.8199 178.7 24.4199C179.68 25.0199 180.79 25.3199 182.04 25.3199" fill="white"></path><path d="M97.81 29.02C96.09 29.02 94.54 28.72 93.16 28.12C92.02 27.63 91.05 26.94 90.23 26.06C89.94 25.75 89.96 25.2599 90.28 24.9799L91.91 23.58C92.21 23.32 92.65 23.35 92.93 23.63C93.58 24.28 94.27 24.77 95.01 25.09C95.93 25.49 96.98 25.7 98.16 25.7C98.63 25.7 99.07 25.64 99.47 25.52C99.87 25.4 100.23 25.23 100.52 24.99C100.82 24.76 101.05 24.48 101.2 24.15C101.36 23.82 101.43 23.47 101.43 23.08C101.43 22.42 101.2 21.8899 100.73 21.4799C100.7 21.4599 100.67 21.43 100.64 21.41C100.38 21.24 99.98 21.04 99.45 20.84C98.89 20.62 98.17 20.39 97.28 20.16C95.77 19.77 94.53 19.33 93.57 18.83C92.61 18.34 91.86 17.78 91.34 17.15C90.95 16.66 90.66 16.11 90.48 15.53C90.3 14.95 90.21 14.3 90.21 13.6C90.21 12.74 90.4 11.95 90.78 11.24C91.16 10.52 91.68 9.89995 92.34 9.35995C93 8.82995 93.79 8.41997 94.68 8.12997C95.58 7.83997 96.54 7.69995 97.55 7.69995C98.51 7.69995 99.47 7.82997 100.42 8.08997C101.37 8.34997 102.25 8.72997 103.06 9.21997C103.65 9.57997 104.17 9.98997 104.62 10.44C104.9 10.72 104.91 11.17 104.65 11.47L103.3 12.96C103.03 13.25 102.58 13.29 102.27 13.03C101.92 12.73 101.56 12.45 101.17 12.21C100.58 11.83 99.99 11.54 99.39 11.33C98.79 11.12 98.24 11.02 97.75 11.02C97.2 11.02 96.71 11.07 96.27 11.18C95.83 11.28 95.46 11.44 95.16 11.65C94.86 11.86 94.63 12.12 94.48 12.43C94.32 12.74 94.24 13.09 94.24 13.49C94.27 13.83 94.35 14.15 94.49 14.45C94.63 14.75 94.8401 15 95.1001 15.21C95.3901 15.42 95.82 15.64 96.39 15.87C96.96 16.11 97.69 16.33 98.58 16.53C99.88 16.87 100.96 17.24 101.8 17.64C102.64 18.04 103.32 18.51 103.81 19.03C104.33 19.52 104.7 20.1 104.9 20.75C105.11 21.4 105.21 22.13 105.21 22.94C105.21 24.11 104.88 25.16 104.21 26.09C103.55 27.01 102.65 27.7399 101.53 28.2599C100.41 28.7799 99.16 29.0399 97.78 29.0399" fill="white"></path><path d="M143.9 2.66998C143.9 1.18998 145.07 0 146.52 0C147.97 0 149.14 1.19998 149.14 2.66998C149.14 4.13998 147.97 5.34 146.52 5.34C145.07 5.34 143.9 4.13998 143.9 2.66998Z" fill="white"></path><path d="M183.014 48.5V47.4495H183.778V48.5H183.014Z" fill="white"></path><path d="M179.683 48.6146C179.193 48.6146 178.763 48.4905 178.394 48.2422C178.025 47.9939 177.757 47.6564 177.592 47.2299L178.193 46.9434C178.34 47.2553 178.544 47.5036 178.805 47.6883C179.072 47.8729 179.365 47.9652 179.683 47.9652C179.989 47.9652 180.247 47.892 180.457 47.7456C180.667 47.5928 180.772 47.3954 180.772 47.1535C180.772 46.9752 180.721 46.8351 180.619 46.7333C180.517 46.625 180.399 46.5423 180.266 46.485C180.132 46.4277 180.014 46.3863 179.912 46.3608L179.177 46.1507C178.706 46.017 178.365 45.8292 178.155 45.5872C177.945 45.3453 177.84 45.0652 177.84 44.7469C177.84 44.4476 177.916 44.1866 178.069 43.9638C178.222 43.7409 178.429 43.569 178.69 43.4481C178.951 43.3271 179.241 43.2666 179.559 43.2666C179.992 43.2666 180.384 43.3812 180.734 43.6104C181.09 43.8332 181.342 44.1452 181.488 44.5463L180.877 44.8328C180.75 44.5463 180.565 44.3235 180.323 44.1643C180.087 43.9988 179.823 43.916 179.53 43.916C179.244 43.916 179.015 43.9892 178.843 44.1357C178.671 44.2821 178.585 44.4667 178.585 44.6896C178.585 44.8615 178.63 44.9983 178.719 45.1002C178.808 45.2021 178.91 45.2785 179.024 45.3294C179.145 45.3803 179.25 45.4185 179.339 45.444L180.189 45.6923C180.603 45.8133 180.925 46.0011 181.154 46.2558C181.389 46.5104 181.507 46.8096 181.507 47.1535C181.507 47.4336 181.428 47.6851 181.268 47.9079C181.116 48.1307 180.902 48.3058 180.629 48.4332C180.355 48.5541 180.04 48.6146 179.683 48.6146Z" fill="white"></path><path d="M174.824 48.6146C174.334 48.6146 173.904 48.4905 173.535 48.2422C173.166 47.9939 172.898 47.6564 172.733 47.2299L173.334 46.9434C173.481 47.2553 173.685 47.5036 173.946 47.6883C174.213 47.8729 174.506 47.9652 174.824 47.9652C175.13 47.9652 175.388 47.892 175.598 47.7456C175.808 47.5928 175.913 47.3954 175.913 47.1535C175.913 46.9752 175.862 46.8351 175.76 46.7333C175.658 46.625 175.54 46.5423 175.407 46.485C175.273 46.4277 175.155 46.3863 175.053 46.3608L174.318 46.1507C173.847 46.017 173.506 45.8292 173.296 45.5872C173.086 45.3453 172.981 45.0652 172.981 44.7469C172.981 44.4476 173.058 44.1866 173.21 43.9638C173.363 43.7409 173.57 43.569 173.831 43.4481C174.092 43.3271 174.382 43.2666 174.7 43.2666C175.133 43.2666 175.525 43.3812 175.875 43.6104C176.231 43.8332 176.483 44.1452 176.629 44.5463L176.018 44.8328C175.891 44.5463 175.706 44.3235 175.464 44.1643C175.229 43.9988 174.964 43.916 174.671 43.916C174.385 43.916 174.156 43.9892 173.984 44.1357C173.812 44.2821 173.726 44.4667 173.726 44.6896C173.726 44.8615 173.771 44.9983 173.86 45.1002C173.949 45.2021 174.051 45.2785 174.165 45.3294C174.286 45.3803 174.391 45.4185 174.48 45.444L175.33 45.6923C175.744 45.8133 176.066 46.0011 176.295 46.2558C176.531 46.5104 176.648 46.8096 176.648 47.1535C176.648 47.4336 176.569 47.6851 176.41 47.9079C176.257 48.1307 176.043 48.3058 175.77 48.4332C175.496 48.5541 175.181 48.6146 174.824 48.6146Z" fill="white"></path><path d="M169.503 48.6146C169.025 48.6146 168.592 48.5 168.204 48.2708C167.822 48.0352 167.519 47.7137 167.297 47.3063C167.074 46.8988 166.962 46.4372 166.962 45.9215C166.962 45.4058 167.071 44.9506 167.287 44.5559C167.504 44.1548 167.796 43.8396 168.166 43.6104C168.541 43.3812 168.961 43.2666 169.426 43.2666C169.796 43.2666 170.123 43.3366 170.41 43.4767C170.703 43.6104 170.951 43.795 171.155 44.0306C171.359 44.2598 171.515 44.5208 171.623 44.8137C171.731 45.1002 171.785 45.3963 171.785 45.7019C171.785 45.7655 171.782 45.8387 171.776 45.9215C171.769 45.9979 171.76 46.0775 171.747 46.1603H167.421V45.4918H171.336L170.992 45.7783C171.05 45.4281 171.008 45.1161 170.868 44.8424C170.735 44.5622 170.54 44.3426 170.286 44.1834C170.031 44.0179 169.745 43.9351 169.426 43.9351C169.108 43.9351 168.812 44.0179 168.538 44.1834C168.271 44.3489 168.061 44.5813 167.908 44.8806C167.755 45.1734 167.695 45.5236 167.726 45.9311C167.695 46.3385 167.758 46.6951 167.917 47.0007C168.083 47.2999 168.306 47.5323 168.586 47.6978C168.872 47.8633 169.178 47.9461 169.503 47.9461C169.878 47.9461 170.193 47.857 170.448 47.6787C170.703 47.5004 170.91 47.2776 171.069 47.0102L171.68 47.3349C171.578 47.5641 171.422 47.7774 171.212 47.9748C171.002 48.1658 170.751 48.3217 170.458 48.4427C170.171 48.5573 169.853 48.6146 169.503 48.6146Z" fill="white"></path><path d="M163.946 48.5V43.3812H164.662V44.2216L164.566 44.0974C164.687 43.8555 164.869 43.6645 165.111 43.5244C165.359 43.3844 165.658 43.3143 166.008 43.3143H166.333V44.0306H165.884C165.515 44.0306 165.219 44.1452 164.996 44.3744C164.773 44.6036 164.662 44.9283 164.662 45.3485V48.5H163.946Z" fill="white"></path><path d="M160.048 50.601C159.698 50.601 159.373 50.5469 159.074 50.4387C158.781 50.3304 158.527 50.1808 158.31 49.9898C158.1 49.8052 157.938 49.5887 157.823 49.3404L158.482 48.9871C158.584 49.229 158.765 49.4391 159.026 49.6174C159.287 49.7956 159.622 49.8848 160.029 49.8848C160.341 49.8848 160.628 49.8243 160.889 49.7033C161.15 49.5823 161.36 49.4041 161.519 49.1685C161.678 48.9329 161.758 48.6433 161.758 48.2995V47.163L161.872 47.2681C161.694 47.6373 161.43 47.9238 161.08 48.1276C160.729 48.3249 160.347 48.4236 159.934 48.4236C159.456 48.4236 159.026 48.309 158.644 48.0798C158.262 47.8506 157.96 47.5418 157.737 47.1535C157.521 46.7587 157.412 46.3226 157.412 45.8451C157.412 45.3612 157.521 44.9251 157.737 44.5368C157.96 44.1484 158.259 43.8396 158.635 43.6104C159.017 43.3812 159.45 43.2666 159.934 43.2666C160.347 43.2666 160.723 43.3621 161.06 43.5531C161.404 43.7441 161.675 44.002 161.872 44.3267L161.758 44.5272V43.3812H162.474V48.2995C162.474 48.7388 162.369 49.1303 162.159 49.4741C161.955 49.8243 161.668 50.098 161.299 50.2954C160.936 50.4991 160.519 50.601 160.048 50.601ZM159.972 47.7074C160.303 47.7074 160.602 47.6246 160.869 47.4591C161.137 47.2872 161.35 47.0611 161.509 46.781C161.675 46.4945 161.758 46.1825 161.758 45.8451C161.758 45.5077 161.675 45.1989 161.509 44.9188C161.35 44.6323 161.137 44.4062 160.869 44.2407C160.602 44.0688 160.303 43.9829 159.972 43.9829C159.634 43.9829 159.329 44.0688 159.055 44.2407C158.781 44.4062 158.565 44.6291 158.406 44.9092C158.253 45.1893 158.176 45.5013 158.176 45.8451C158.176 46.1825 158.253 46.4945 158.406 46.781C158.565 47.0611 158.778 47.2872 159.045 47.4591C159.319 47.6246 159.628 47.7074 159.972 47.7074Z" fill="white"></path><path d="M153.762 48.6146C153.278 48.6146 152.838 48.5 152.444 48.2708C152.049 48.0352 151.734 47.7169 151.498 47.3158C151.269 46.9083 151.155 46.4468 151.155 45.9311C151.155 45.4217 151.269 44.9665 151.498 44.5654C151.728 44.1643 152.036 43.8491 152.425 43.6199C152.819 43.3844 153.265 43.2666 153.762 43.2666C154.258 43.2666 154.701 43.3812 155.089 43.6104C155.484 43.8396 155.793 44.1548 156.015 44.5559C156.245 44.957 156.359 45.4154 156.359 45.9311C156.359 46.4531 156.241 46.9179 156.006 47.3254C155.77 47.7265 155.455 48.0416 155.06 48.2708C154.672 48.5 154.239 48.6146 153.762 48.6146ZM153.762 47.8984C154.105 47.8984 154.414 47.8124 154.688 47.6405C154.968 47.4686 155.188 47.233 155.347 46.9338C155.512 46.6346 155.595 46.3003 155.595 45.9311C155.595 45.5618 155.512 45.2307 155.347 44.9379C155.188 44.645 154.968 44.4126 154.688 44.2407C154.414 44.0688 154.105 43.9829 153.762 43.9829C153.418 43.9829 153.106 44.0688 152.826 44.2407C152.552 44.4126 152.332 44.645 152.167 44.9379C152.001 45.2307 151.919 45.5618 151.919 45.9311C151.919 46.3003 152.001 46.6346 152.167 46.9338C152.332 47.233 152.552 47.4686 152.826 47.6405C153.106 47.8124 153.418 47.8984 153.762 47.8984Z" fill="white"></path><path d="M148.138 48.5V43.3812H148.854V44.2216L148.759 44.0974C148.879 43.8555 149.061 43.6645 149.303 43.5244C149.551 43.3844 149.85 43.3143 150.201 43.3143H150.525V44.0306H150.076C149.707 44.0306 149.411 44.1452 149.188 44.3744C148.965 44.6036 148.854 44.9283 148.854 45.3485V48.5H148.138Z" fill="white"></path><path d="M142.106 48.5V41.3852H144.551C145.016 41.3852 145.423 41.4776 145.773 41.6622C146.124 41.8405 146.394 42.0951 146.585 42.4262C146.782 42.7509 146.881 43.1297 146.881 43.5626C146.881 43.9956 146.782 44.3744 146.585 44.6991C146.394 45.0238 146.124 45.2785 145.773 45.4631C145.43 45.6414 145.022 45.7305 144.551 45.7305H142.87V48.5H142.106ZM142.87 45.0142H144.589C144.895 45.0142 145.162 44.9569 145.391 44.8423C145.621 44.7214 145.799 44.5527 145.926 44.3362C146.054 44.1134 146.117 43.8523 146.117 43.5531C146.117 43.2539 146.054 42.996 145.926 42.7795C145.799 42.5631 145.621 42.3975 145.391 42.2829C145.162 42.162 144.895 42.1015 144.589 42.1015H142.87V45.0142Z" fill="white"></path><path d="M137.894 48.5V47.4495H138.658V48.5H137.894Z" fill="white"></path><path d="M134.101 48.6146C133.623 48.6146 133.19 48.5 132.802 48.2708C132.42 48.0352 132.117 47.7137 131.894 47.3063C131.672 46.8988 131.56 46.4372 131.56 45.9215C131.56 45.4058 131.668 44.9506 131.885 44.5559C132.101 44.1548 132.394 43.8396 132.764 43.6104C133.139 43.3812 133.559 43.2666 134.024 43.2666C134.393 43.2666 134.721 43.3366 135.008 43.4767C135.301 43.6104 135.549 43.795 135.753 44.0306C135.956 44.2598 136.112 44.5208 136.221 44.8137C136.329 45.1002 136.383 45.3963 136.383 45.7019C136.383 45.7655 136.38 45.8387 136.373 45.9215C136.367 45.9979 136.357 46.0775 136.345 46.1603H132.019V45.4918H135.934L135.59 45.7783C135.648 45.4281 135.606 45.1161 135.466 44.8424C135.332 44.5622 135.138 44.3426 134.884 44.1834C134.629 44.0179 134.342 43.9351 134.024 43.9351C133.706 43.9351 133.41 44.0179 133.136 44.1834C132.869 44.3489 132.658 44.5813 132.506 44.8806C132.353 45.1734 132.292 45.5236 132.324 45.9311C132.292 46.3385 132.356 46.6951 132.515 47.0007C132.681 47.2999 132.904 47.5323 133.184 47.6978C133.47 47.8633 133.776 47.9461 134.101 47.9461C134.476 47.9461 134.791 47.857 135.046 47.6787C135.301 47.5004 135.508 47.2776 135.667 47.0102L136.278 47.3349C136.176 47.5641 136.02 47.7774 135.81 47.9748C135.6 48.1658 135.348 48.3217 135.056 48.4427C134.769 48.5573 134.451 48.6146 134.101 48.6146Z" fill="white"></path><path d="M129.588 48.5V41.2707H130.304V48.5H129.588Z" fill="white"></path><path d="M123.218 50.41V43.3812H123.934V44.5272L123.82 44.3267C124.024 44.002 124.294 43.7441 124.632 43.5531C124.975 43.3621 125.367 43.2666 125.806 43.2666C126.29 43.2666 126.72 43.3844 127.096 43.6199C127.478 43.8491 127.777 44.1643 127.993 44.5654C128.216 44.9665 128.327 45.4249 128.327 45.9406C128.327 46.4499 128.216 46.9083 127.993 47.3158C127.777 47.7169 127.478 48.0352 127.096 48.2708C126.72 48.5 126.29 48.6146 125.806 48.6146C125.367 48.6146 124.969 48.5159 124.613 48.3186C124.262 48.1148 123.998 47.8283 123.82 47.4591L123.934 47.354V50.41H123.218ZM125.768 47.8984C126.112 47.8984 126.417 47.8124 126.685 47.6405C126.959 47.4686 127.172 47.2362 127.325 46.9434C127.484 46.6441 127.563 46.3099 127.563 45.9406C127.563 45.565 127.484 45.2307 127.325 44.9379C127.172 44.645 126.959 44.4126 126.685 44.2407C126.417 44.0688 126.112 43.9829 125.768 43.9829C125.424 43.9829 125.112 44.0688 124.832 44.2407C124.558 44.4126 124.339 44.6482 124.173 44.9474C124.014 45.2403 123.934 45.5713 123.934 45.9406C123.934 46.3099 124.014 46.6441 124.173 46.9434C124.339 47.2362 124.558 47.4686 124.832 47.6405C125.112 47.8124 125.424 47.8984 125.768 47.8984Z" fill="white"></path><path d="M119.357 48.6146C118.874 48.6146 118.434 48.5 118.039 48.2708C117.645 48.0352 117.33 47.7169 117.094 47.3158C116.865 46.9083 116.75 46.4468 116.75 45.9311C116.75 45.4217 116.865 44.9665 117.094 44.5654C117.323 44.1643 117.632 43.8491 118.02 43.6199C118.415 43.3844 118.861 43.2666 119.357 43.2666C119.854 43.2666 120.296 43.3812 120.685 43.6104C121.08 43.8396 121.388 44.1548 121.611 44.5559C121.84 44.957 121.955 45.4154 121.955 45.9311C121.955 46.4531 121.837 46.9179 121.602 47.3254C121.366 47.7265 121.051 48.0416 120.656 48.2708C120.268 48.5 119.835 48.6146 119.357 48.6146ZM119.357 47.8984C119.701 47.8984 120.01 47.8124 120.284 47.6405C120.564 47.4686 120.784 47.233 120.943 46.9338C121.108 46.6346 121.191 46.3003 121.191 45.9311C121.191 45.5618 121.108 45.2307 120.943 44.9379C120.784 44.645 120.564 44.4126 120.284 44.2407C120.01 44.0688 119.701 43.9829 119.357 43.9829C119.014 43.9829 118.702 44.0688 118.421 44.2407C118.148 44.4126 117.928 44.645 117.763 44.9379C117.597 45.2307 117.514 45.5618 117.514 45.9311C117.514 46.3003 117.597 46.6346 117.763 46.9338C117.928 47.233 118.148 47.4686 118.421 47.6405C118.702 47.8124 119.014 47.8984 119.357 47.8984Z" fill="white"></path><path d="M113.415 48.6146C112.938 48.6146 112.505 48.5 112.116 48.2708C111.734 48.0352 111.432 47.7137 111.209 47.3063C110.986 46.8988 110.875 46.4372 110.875 45.9215C110.875 45.4058 110.983 44.9506 111.199 44.5559C111.416 44.1548 111.709 43.8396 112.078 43.6104C112.454 43.3812 112.874 43.2666 113.339 43.2666C113.708 43.2666 114.036 43.3366 114.322 43.4767C114.615 43.6104 114.863 43.795 115.067 44.0306C115.271 44.2598 115.427 44.5208 115.535 44.8137C115.643 45.1002 115.698 45.3963 115.698 45.7019C115.698 45.7655 115.694 45.8387 115.688 45.9215C115.682 45.9979 115.672 46.0775 115.659 46.1603H111.333V45.4918H115.249L114.905 45.7783C114.962 45.4281 114.921 45.1161 114.781 44.8424C114.647 44.5622 114.453 44.3426 114.198 44.1834C113.943 44.0179 113.657 43.9351 113.339 43.9351C113.02 43.9351 112.724 44.0179 112.451 44.1834C112.183 44.3489 111.973 44.5813 111.82 44.8806C111.667 45.1734 111.607 45.5236 111.639 45.9311C111.607 46.3385 111.671 46.6951 111.83 47.0007C111.995 47.2999 112.218 47.5323 112.498 47.6978C112.785 47.8633 113.09 47.9461 113.415 47.9461C113.791 47.9461 114.106 47.857 114.361 47.6787C114.615 47.5004 114.822 47.2776 114.981 47.0102L115.592 47.3349C115.491 47.5641 115.335 47.7774 115.125 47.9748C114.914 48.1658 114.663 48.3217 114.37 48.4427C114.084 48.5573 113.765 48.6146 113.415 48.6146Z" fill="white"></path><path d="M105.24 48.5V41.3852H107.685C108.149 41.3852 108.557 41.4776 108.907 41.6622C109.257 41.8405 109.528 42.0951 109.719 42.4262C109.916 42.7509 110.015 43.1297 110.015 43.5626C110.015 43.9956 109.916 44.3744 109.719 44.6991C109.528 45.0238 109.257 45.2785 108.907 45.4631C108.563 45.6414 108.156 45.7305 107.685 45.7305H106.004V48.5H105.24ZM106.004 45.0142H107.723C108.028 45.0142 108.296 44.9569 108.525 44.8423C108.754 44.7214 108.932 44.5527 109.06 44.3362C109.187 44.1134 109.251 43.8523 109.251 43.5531C109.251 43.2539 109.187 42.996 109.06 42.7795C108.932 42.5631 108.754 42.3975 108.525 42.2829C108.296 42.162 108.028 42.1015 107.723 42.1015H106.004V45.0142Z" fill="white"></path><path d="M101.028 48.5V47.4495H101.792V48.5H101.028Z" fill="white"></path><path d="M97.2341 48.6146C96.7566 48.6146 96.3237 48.5 95.9353 48.2708C95.5533 48.0352 95.2509 47.7137 95.0281 47.3063C94.8053 46.8988 94.6938 46.4372 94.6938 45.9215C94.6938 45.4058 94.8021 44.9506 95.0185 44.5559C95.235 44.1548 95.5279 43.8396 95.8971 43.6104C96.2728 43.3812 96.693 43.2666 97.1577 43.2666C97.527 43.2666 97.8549 43.3366 98.1414 43.4767C98.4343 43.6104 98.6826 43.795 98.8863 44.0306C99.09 44.2598 99.246 44.5208 99.3542 44.8137C99.4625 45.1002 99.5166 45.3963 99.5166 45.7019C99.5166 45.7655 99.5134 45.8387 99.507 45.9215C99.5007 45.9979 99.4911 46.0775 99.4784 46.1603H95.1523V45.4918H99.0677L98.724 45.7783C98.7813 45.4281 98.7399 45.1161 98.5998 44.8424C98.4661 44.5622 98.2719 44.3426 98.0173 44.1834C97.7626 44.0179 97.4761 43.9351 97.1577 43.9351C96.8394 43.9351 96.5434 44.0179 96.2696 44.1834C96.0022 44.3489 95.7921 44.5813 95.6393 44.8806C95.4865 45.1734 95.426 45.5236 95.4578 45.9311C95.426 46.3385 95.4897 46.6951 95.6488 47.0007C95.8144 47.2999 96.0372 47.5323 96.3174 47.6978C96.6039 47.8633 96.9094 47.9461 97.2341 47.9461C97.6098 47.9461 97.9249 47.857 98.1796 47.6787C98.4343 47.5004 98.6412 47.2776 98.8004 47.0102L99.4115 47.3349C99.3097 47.5641 99.1537 47.7774 98.9436 47.9748C98.7335 48.1658 98.482 48.3217 98.1891 48.4427C97.9026 48.5573 97.5843 48.6146 97.2341 48.6146Z" fill="white"></path><path d="M91.6771 48.5V43.3812H92.3933V44.2216L92.2978 44.0974C92.4188 43.8555 92.6003 43.6645 92.8422 43.5244C93.0905 43.3844 93.3897 43.3143 93.7399 43.3143H94.0646V44.0306H93.6157C93.2465 44.0306 92.9504 44.1452 92.7276 44.3744C92.5048 44.6036 92.3933 44.9283 92.3933 45.3485V48.5H91.6771Z" fill="white"></path><path d="M88.0171 48.6146C87.6606 48.6146 87.3359 48.5318 87.043 48.3663C86.7502 48.1944 86.5178 47.9588 86.3459 47.6596C86.1804 47.354 86.0976 47.0038 86.0976 46.6091V43.3812H86.8138V46.5232C86.8138 46.7969 86.8679 47.0389 86.9762 47.249C87.0908 47.4527 87.2468 47.6119 87.4441 47.7265C87.6479 47.8411 87.8802 47.8984 88.1413 47.8984C88.4023 47.8984 88.6347 47.8411 88.8384 47.7265C89.0422 47.6055 89.2013 47.4368 89.3159 47.2203C89.4305 46.9975 89.4878 46.7333 89.4878 46.4277V43.3812H90.2041V48.5H89.4878V47.5068L89.6502 47.545C89.5292 47.8761 89.3223 48.1371 89.0294 48.3281C88.7366 48.5191 88.3991 48.6146 88.0171 48.6146Z" fill="white"></path><path d="M84.4579 48.5573C83.9995 48.5573 83.6461 48.4236 83.3978 48.1562C83.1495 47.8888 83.0254 47.5068 83.0254 47.0102V44.0975H82.0799V43.3812H82.3187C82.5352 43.3812 82.7071 43.3112 82.8344 43.1711C82.9617 43.0247 83.0254 42.8432 83.0254 42.6267V42.197H83.7416V43.3812H84.8685V44.0975H83.7416V47.0102C83.7416 47.1821 83.7671 47.3349 83.818 47.4686C83.869 47.5959 83.9549 47.6978 84.0759 47.7742C84.2032 47.8506 84.3719 47.8888 84.582 47.8888C84.633 47.8888 84.6935 47.8856 84.7635 47.8792C84.8335 47.8729 84.894 47.8665 84.9449 47.8601V48.5C84.8685 48.5191 84.7826 48.5318 84.6871 48.5382C84.5916 48.5509 84.5152 48.5573 84.4579 48.5573Z" fill="white"></path><path d="M79.1136 48.6146C78.6107 48.6146 78.1682 48.4968 77.7862 48.2613C77.4042 48.0257 77.1049 47.7074 76.8885 47.3063C76.672 46.8988 76.5638 46.4404 76.5638 45.9311C76.5638 45.4217 76.672 44.9665 76.8885 44.5654C77.1049 44.1643 77.4042 43.8491 77.7862 43.6199C78.1682 43.3844 78.6107 43.2666 79.1136 43.2666C79.432 43.2666 79.7312 43.3239 80.0113 43.4385C80.2915 43.5531 80.5398 43.7091 80.7562 43.9065C80.9727 44.0975 81.1351 44.3203 81.2433 44.575L80.5939 44.9092C80.4666 44.6354 80.2724 44.4126 80.0113 44.2407C79.7503 44.0688 79.4511 43.9829 79.1136 43.9829C78.7762 43.9829 78.4706 44.0688 78.1968 44.2407C77.9294 44.4062 77.7162 44.6386 77.557 44.9379C77.4042 45.2307 77.3278 45.565 77.3278 45.9406C77.3278 46.3099 77.4042 46.6441 77.557 46.9434C77.7162 47.2362 77.9294 47.4686 78.1968 47.6405C78.4706 47.8124 78.7762 47.8984 79.1136 47.8984C79.4511 47.8984 79.7471 47.8124 80.0018 47.6405C80.2628 47.4686 80.4602 47.2394 80.5939 46.9529L81.2433 47.3063C81.1351 47.5546 80.9727 47.7774 80.7562 47.9748C80.5398 48.1721 80.2915 48.3281 80.0113 48.4427C79.7312 48.5573 79.432 48.6146 79.1136 48.6146Z" fill="white"></path><path d="M73.1139 48.6146C72.7574 48.6146 72.4327 48.5318 72.1398 48.3663C71.8469 48.1944 71.6146 47.9588 71.4427 47.6596C71.2771 47.354 71.1944 47.0038 71.1944 46.6091V43.3812H71.9106V46.5232C71.9106 46.7969 71.9647 47.0389 72.073 47.249C72.1876 47.4527 72.3435 47.6119 72.5409 47.7265C72.7446 47.8411 72.977 47.8984 73.2381 47.8984C73.4991 47.8984 73.7315 47.8411 73.9352 47.7265C74.139 47.6055 74.2981 47.4368 74.4127 47.2203C74.5273 46.9975 74.5846 46.7333 74.5846 46.4277V43.3812H75.3009V48.5H74.5846V47.5068L74.747 47.545C74.626 47.8761 74.4191 48.1371 74.1262 48.3281C73.8334 48.5191 73.4959 48.6146 73.1139 48.6146Z" fill="white"></path><path d="M68.0726 48.5V43.3812H68.7888V44.2216L68.6933 44.0974C68.8143 43.8555 68.9957 43.6645 69.2377 43.5244C69.486 43.3844 69.7852 43.3143 70.1354 43.3143H70.4601V44.0306H70.0112C69.6419 44.0306 69.3459 44.1452 69.1231 44.3744C68.9002 44.6036 68.7888 44.9283 68.7888 45.3485V48.5H68.0726Z" fill="white"></path><path d="M66.3278 48.5573C65.8694 48.5573 65.5161 48.4236 65.2678 48.1562C65.0195 47.8888 64.8953 47.5068 64.8953 47.0102V44.0975H63.9499V43.3812H64.1886C64.4051 43.3812 64.577 43.3112 64.7043 43.1711C64.8316 43.0247 64.8953 42.8432 64.8953 42.6267V42.197H65.6116V43.3812H66.7385V44.0975H65.6116V47.0102C65.6116 47.1821 65.637 47.3349 65.688 47.4686C65.7389 47.5959 65.8248 47.6978 65.9458 47.7742C66.0731 47.8506 66.2419 47.8888 66.452 47.8888C66.5029 47.8888 66.5634 47.8856 66.6334 47.8792C66.7035 47.8729 66.7639 47.8665 66.8149 47.8601V48.5C66.7385 48.5191 66.6525 48.5318 66.557 48.5382C66.4615 48.5509 66.3851 48.5573 66.3278 48.5573Z" fill="white"></path><path d="M61.2874 48.6146C60.7972 48.6146 60.3675 48.4905 59.9982 48.2422C59.6289 47.9939 59.3615 47.6564 59.196 47.2299L59.7976 46.9434C59.9441 47.2553 60.1478 47.5036 60.4088 47.6883C60.6762 47.8729 60.9691 47.9652 61.2874 47.9652C61.593 47.9652 61.8509 47.892 62.061 47.7456C62.2711 47.5928 62.3761 47.3954 62.3761 47.1535C62.3761 46.9752 62.3252 46.8351 62.2233 46.7333C62.1215 46.625 62.0037 46.5423 61.87 46.485C61.7363 46.4277 61.6185 46.3863 61.5166 46.3608L60.7813 46.1507C60.3102 46.017 59.9695 45.8292 59.7594 45.5872C59.5493 45.3453 59.4443 45.0652 59.4443 44.7469C59.4443 44.4476 59.5207 44.1866 59.6735 43.9638C59.8263 43.7409 60.0332 43.569 60.2942 43.4481C60.5553 43.3271 60.845 43.2666 61.1633 43.2666C61.5962 43.2666 61.9878 43.3812 62.3379 43.6104C62.6945 43.8332 62.946 44.1452 63.0924 44.5463L62.4812 44.8328C62.3539 44.5463 62.1692 44.3235 61.9273 44.1643C61.6917 43.9988 61.4275 43.916 61.1346 43.916C60.8481 43.916 60.6189 43.9892 60.447 44.1357C60.2751 44.2821 60.1892 44.4667 60.1892 44.6896C60.1892 44.8615 60.2338 44.9983 60.3229 45.1002C60.412 45.2021 60.5139 45.2785 60.6285 45.3294C60.7494 45.3803 60.8545 45.4185 60.9436 45.444L61.7936 45.6923C62.2074 45.8133 62.5289 46.0011 62.7581 46.2558C62.9937 46.5104 63.1115 46.8096 63.1115 47.1535C63.1115 47.4336 63.0319 47.6851 62.8727 47.9079C62.7199 48.1307 62.5067 48.3058 62.2329 48.4332C61.9591 48.5541 61.644 48.6146 61.2874 48.6146Z" fill="white"></path><path d="M55.5262 48.6146C55.2015 48.6146 54.9119 48.5541 54.6572 48.4332C54.4025 48.3058 54.202 48.1339 54.0555 47.9174C53.9091 47.701 53.8359 47.4527 53.8359 47.1726C53.8359 46.9052 53.8932 46.6632 54.0078 46.4468C54.1224 46.2239 54.3007 46.0361 54.5426 45.8833C54.7845 45.7305 55.0933 45.6223 55.4689 45.5586L57.4744 45.2243V45.8738L55.6408 46.1794C55.2716 46.243 55.0042 46.3608 54.8386 46.5327C54.6795 46.7046 54.5999 46.9083 54.5999 47.1439C54.5999 47.3731 54.689 47.5673 54.8673 47.7265C55.0519 47.8856 55.2875 47.9652 55.574 47.9652C55.9242 47.9652 56.2298 47.892 56.4908 47.7456C56.7518 47.5928 56.9556 47.389 57.102 47.1344C57.2484 46.8797 57.3216 46.5964 57.3216 46.2844V44.9856C57.3216 44.68 57.2102 44.4317 56.9874 44.2407C56.7646 44.0497 56.4749 43.9542 56.1183 43.9542C55.8064 43.9542 55.5326 44.0338 55.297 44.193C55.0615 44.3458 54.8864 44.5463 54.7718 44.7946L54.1224 44.4413C54.2179 44.2248 54.3675 44.0274 54.5712 43.8492C54.7813 43.6709 55.0201 43.5308 55.2875 43.429C55.5549 43.3207 55.8318 43.2666 56.1183 43.2666C56.494 43.2666 56.825 43.3398 57.1115 43.4863C57.4044 43.6327 57.6304 43.8364 57.7896 44.0975C57.9551 44.3521 58.0379 44.6482 58.0379 44.9856V48.5H57.3216V47.4782L57.4267 47.5832C57.3376 47.7742 57.1975 47.9493 57.0065 48.1085C56.8219 48.2613 56.6022 48.3854 56.3475 48.4809C56.0992 48.57 55.8255 48.6146 55.5262 48.6146Z" fill="white"></path><path d="M50.8191 48.5V43.3812H51.5354V44.2216L51.4399 44.0974C51.5609 43.8555 51.7423 43.6645 51.9842 43.5244C52.2325 43.3844 52.5318 43.3143 52.8819 43.3143H53.2066V44.0306H52.7578C52.3885 44.0306 52.0925 44.1452 51.8696 44.3744C51.6468 44.6036 51.5354 44.9283 51.5354 45.3485V48.5H50.8191Z" fill="white"></path><path d="M47.6885 48.5V44.0975H46.6667V43.3812H47.6885V42.9228C47.6885 42.5663 47.7681 42.267 47.9273 42.0251C48.0864 41.7768 48.2965 41.589 48.5576 41.4617C48.8186 41.3343 49.0987 41.2707 49.398 41.2707C49.4616 41.2707 49.5349 41.277 49.6176 41.2898C49.7004 41.2961 49.7672 41.3057 49.8182 41.3184V41.9678C49.7736 41.9551 49.7131 41.9487 49.6367 41.9487C49.5603 41.9423 49.5062 41.9392 49.4744 41.9392C49.1688 41.9392 48.9141 42.0124 48.7104 42.1588C48.5066 42.3052 48.4048 42.5599 48.4048 42.9228V43.3812H49.6558V44.0975H48.4048V48.5H47.6885Z" fill="white"></path><path d="M41.6888 48.5V43.3812H42.4051V44.3744L42.2427 44.3362C42.3701 44.0051 42.577 43.7441 42.8635 43.5531C43.1563 43.3621 43.4938 43.2666 43.8758 43.2666C44.2387 43.2666 44.5634 43.3494 44.8499 43.5149C45.1427 43.6804 45.3719 43.9096 45.5375 44.2025C45.7094 44.489 45.7953 44.8137 45.7953 45.1766V48.5H45.0791V45.4536C45.0791 45.1416 45.0218 44.8774 44.9072 44.6609C44.7989 44.4444 44.643 44.2789 44.4392 44.1643C44.2419 44.0433 44.0127 43.9829 43.7516 43.9829C43.4906 43.9829 43.2582 44.0433 43.0545 44.1643C42.8507 44.2789 42.6916 44.4476 42.577 44.6705C42.4624 44.8869 42.4051 45.148 42.4051 45.4536V48.5H41.6888Z" fill="white"></path><path d="M39.3504 48.5V41.3852H40.1144V48.5H39.3504Z" fill="white"></path><path d="M10.84 28.7699L0 14.9199V28.7699H10.84ZM0 14.9199H10.92L0 1.03992V14.9199ZM21.92 14.9399L32.26 14.9099L21.69 1.08994H10.68L21.63 14.9399L10.9 14.9199L21.85 28.7599C26.66 28.7599 29.58 24.6099 27.05 21.4099L21.91 14.9399H21.92Z" fill="white"></path></svg>