<?xml version="1.0" encoding="UTF-8"?>
<!DOCTYPE svg PUBLIC "-//W3C//DTD SVG 1.1//EN" "http://www.w3.org/Graphics/SVG/1.1/DTD/svg11.dtd">
<!-- Creator: CorelDRAW 2018 (64-Bit) -->
<svg xmlns="http://www.w3.org/2000/svg" xml:space="preserve" width="956px" height="1110px" version="1.1" style="shape-rendering:geometricPrecision; text-rendering:geometricPrecision; image-rendering:optimizeQuality; fill-rule:evenodd; clip-rule:evenodd"
viewBox="0 0 569.32 660.7"
 xmlns:xlink="http://www.w3.org/1999/xlink">
 <defs>
  <style type="text/css">
   <![CDATA[
    .fil0 {fill:#FEFEFE}
    .fil1 {fill:#F6903E}
    .fil2 {fill:#00A859;fill-rule:nonzero}
   ]]>
  </style>
 </defs>
 <g id="Layer_x0020_1">
  <metadata id="CorelCorpID_0Corel-Layer"/>
  <path class="fil0" d="M0 0l569.32 0 0 376.04c0,156.56 -128.1,284.66 -284.66,284.66l0 0c-156.56,0 -284.66,-128.1 -284.66,-284.66l0 -376.04z"/>
  <g id="_1730732193104">
   <path class="fil1" d="M211.7 174.87c-25.23,13.35 -43.35,28.11 -59.85,50.8 -7.86,10.82 -14.2,22.51 -19.77,35.53 -13.6,31.81 -13.35,68.45 -5.12,101.5 2.79,11.16 5.51,18.39 10.15,27.58 8.44,16.74 17.69,31.45 30.27,43.89 20.93,20.71 61.49,47.47 102.16,47.47l0 -61.61 -26.41 0 0 31.43c-21.31,-1.78 -53.26,-29.34 -65.07,-43.05 -13.32,-15.49 -31.73,-49.87 -31.73,-77.64l0 -12.58c0,-70.09 61.14,-134.52 129.49,-134.52l10.05 0c73.62,0 134.53,60.92 134.53,134.52l0 10.06c0,26.21 -13.5,56.68 -24.92,71.88 -20.03,26.64 -42.21,39.46 -71.89,51.33l0 -31.43 -26.4 0 0 61.61 6.29 0c17.93,0 43.32,-11.64 56.15,-18.03 17.5,-8.73 29.78,-19.57 42.87,-32.57 21.51,-21.35 43.04,-63.71 43.04,-106.55l0 -13.84c0,-15.39 -4.78,-32.02 -8.97,-43.83 -5.25,-14.83 -13.55,-31.98 -23.71,-44.17 -19.27,-28.78 -71.45,-64.13 -119.44,-64.13l-17.6 0c-21.55,0 -44.66,7.37 -64.12,16.35l0 0z"/>
   <path class="fil1" d="M318.59 370.99c0,-7.74 4.84,-12.57 12.57,-12.57 4.96,0 10.06,5.72 10.06,11.31l0 3.78c0,4 -6.4,8.8 -11.31,8.8l-1.26 0c-4.23,0 -10.06,-5.63 -10.06,-11.32zm-93.04 -3.76c0,-4.18 7.02,-8.8 11.32,-8.8 5.85,0 11.31,4.99 11.31,11.3l0 1.26c0,6.32 -5.46,11.32 -11.31,11.32 -5.85,0 -11.32,-5 -11.32,-11.32l0 -3.76zm5.04 -30.18c0,-11.62 3.49,-21.17 5.01,-31.44 1.66,-11.15 1.62,-20.1 15.1,-20.1l69.15 0c10.68,0 9.96,13.26 11.82,23.38 1.29,7.1 5.78,22.96 5.78,28.16 0,4.25 -8.17,7.55 -13.84,7.55l-80.46 0c-5.96,0 -12.56,-1.58 -12.56,-7.55zm21.37 -72.91c0,-2.95 2.08,-5.04 5.02,-5.04l52.8 0c2.94,0 6.29,3.36 6.29,6.29 0,2.94 -3.35,6.28 -6.29,6.28l-50.28 0c-3.86,0 -7.54,-1.15 -7.54,-5.02l0 -2.51 0 0zm-49.04 101.83l0 3.76c0,14.18 15.9,31.44 28.92,31.44l99.32 0c17.22,0 32.69,-15.13 32.69,-31.44l0 -3.76c0,-13.41 -8.97,-53.07 -12.06,-68.41 -4.14,-20.56 -6.08,-52.28 -29.43,-52.28l-75.43 0c-25.05,0 -28.01,28.37 -31.47,50.26 -2.91,18.52 -12.54,53.52 -12.54,70.43l0 0z"/>
   <path class="fil2" d="M189.66 103.87l1.71 -5.7 36.34 0 -1.72 5.7 -3.34 0c-3.23,3.85 -5.7,8.03 -7.42,12.54 -1.7,4.56 -2.55,9.17 -2.55,13.82l0 7.12c-1.53,-0.51 -2.74,-1.44 -3.64,-2.77 -0.91,-1.29 -1.35,-2.73 -1.35,-4.35l0 -7.48c-1.24,-0.71 -2.66,-1.07 -4.28,-1.07l-4.99 0c-0.62,1.72 -1.52,3.09 -2.7,4.14 -1.19,1.04 -2.43,1.56 -3.7,1.56 -1.39,0 -2.55,-0.54 -3.5,-1.64 -1,-1.13 -1.49,-2.48 -1.49,-4.06 0,-1 0.47,-1.9 1.42,-2.7 0.95,-0.81 2.14,-1.33 3.57,-1.58 2.37,-4.88 3.56,-9.39 3.56,-13.53l-5.92 0zm24.44 0l-12.11 0c0,4.18 -0.71,8.22 -2.14,12.11l3.56 0c2.14,0 4.03,0.48 5.7,1.42 1.05,-5.88 2.71,-10.4 4.99,-13.53zm10.47 0l1.71 -5.7 36.76 0 -1.71 5.7 -8.48 0c0,2.42 -1.04,4.46 -3.13,6.13 -2.09,1.71 -4.61,2.56 -7.56,2.56 -2.56,0 -4.74,0.33 -6.55,1 -1.81,0.66 -2.7,1.48 -2.7,2.42 0,0.48 0.09,0.91 0.28,1.28 0.2,0.39 0.45,0.62 0.79,0.71 1.28,-0.46 2.59,-0.71 3.92,-0.71l5.34 0c1.9,0 3.8,1.12 5.7,3.35 1.9,2.24 2.84,4.44 2.84,6.63 0,1.61 -0.73,2.99 -2.2,4.13 -1.47,1.14 -3.23,1.71 -5.27,1.71 -2.29,0 -3.98,-0.4 -5.06,-1.21 -1.38,-0.8 -2.07,-1.78 -2.07,-2.92 0,-0.62 0.07,-1.14 0.21,-1.57 0.1,-0.48 0.26,-0.85 0.51,-1.14 0.46,0.43 1.13,0.74 1.99,0.93 0.85,0.24 1.85,0.35 2.98,0.35 1.39,0 2.55,-0.25 3.5,-0.78 0.99,-0.52 1.49,-1.16 1.49,-1.92 0,-0.57 -0.28,-1.05 -0.85,-1.42 -0.52,-0.39 -1.19,-0.57 -1.99,-0.57l-5.7 0c-3.14,0 -5.82,0.92 -8.06,2.77 -2.23,1.85 -3.34,4.12 -3.34,6.77 0,1.61 0.8,2.96 2.42,4.06 1.56,1.14 3.49,1.72 5.77,1.72 4.42,0 8.93,-1.03 13.54,-3.07 -0.71,1.99 -2.52,3.58 -5.41,4.77 -2.86,1.23 -6.27,1.85 -10.26,1.85 -3.57,0 -6.59,-1.04 -9.05,-3.14 -2.52,-2.04 -3.78,-4.53 -3.78,-7.47 0,-2.56 0.88,-4.94 2.64,-7.12 1.76,-2.24 4.08,-3.87 6.98,-4.92 -1.39,-0.53 -2.49,-1.31 -3.36,-2.36 -0.85,-1.08 -1.28,-2.25 -1.28,-3.48 0,-1.72 0.89,-3.19 2.64,-4.42 1.71,-1.19 3.8,-1.79 6.27,-1.79l6.41 0c1.19,0 2.19,-0.3 3,-0.92 0.85,-0.62 1.28,-1.35 1.28,-2.21l-21.16 0 0 0zm35.34 0l1.7 -5.7 18.25 0 -1.72 5.7 -4.05 0c-3.19,5.51 -5.59,10.5 -7.2,14.97 -1.66,4.46 -2.49,8.26 -2.49,11.39l0 7.12c-1.53,-0.51 -2.73,-1.44 -3.64,-2.77 -0.9,-1.29 -1.35,-2.73 -1.35,-4.35 0,-9.35 2.38,-18.14 7.12,-26.36l-6.62 0zm36.76 0l1.71 -5.7 36.33 0 -1.71 5.7 -3.35 0c-3.23,3.85 -5.7,8.03 -7.4,12.54 -1.72,4.56 -2.57,9.17 -2.57,13.82l0 7.12c-1.52,-0.51 -2.74,-1.44 -3.63,-2.77 -0.9,-1.29 -1.36,-2.73 -1.36,-4.35l0 -7.48c-1.23,-0.71 -2.66,-1.07 -4.28,-1.07l-4.97 0c-0.62,1.72 -1.53,3.09 -2.72,4.14 -1.18,1.04 -2.41,1.56 -3.7,1.56 -1.37,0 -2.54,-0.54 -3.49,-1.64 -0.99,-1.13 -1.5,-2.48 -1.5,-4.06 0,-1 0.48,-1.9 1.43,-2.7 0.95,-0.81 2.14,-1.33 3.56,-1.58 2.37,-4.88 3.56,-9.39 3.56,-13.53l-5.91 0zm24.44 0l-12.12 0c0,4.18 -0.71,8.22 -2.13,12.11l3.55 0c2.15,0 4.05,0.48 5.71,1.42 1.04,-5.88 2.7,-10.4 4.99,-13.53zm-17.68 -21.72c2.05,-1.19 4.19,-1.79 6.41,-1.79 4.81,0 8.91,1.74 12.33,5.2 3.42,3.47 5.14,7.67 5.14,12.61l-3.21 0c0,-3.13 -1.05,-5.81 -3.13,-8.05 -2.1,-2.24 -4.61,-3.35 -7.56,-3.35 -1.14,0 -2.24,0.19 -3.28,0.58 -1.04,0.32 -1.97,0.85 -2.78,1.56 -0.14,0.14 -0.35,0.05 -0.63,-0.28 -0.34,-0.29 -0.6,-0.67 -0.79,-1.14l-2.5 -5.34zm28.51 21.72l1.7 -5.7 33.2 0 -1.71 5.7 -6.48 0c0,3.33 -1.19,6.18 -3.56,8.55 -2.38,2.37 -5.22,3.56 -8.56,3.56l-5.69 0c-1.94,0 -3.63,0.62 -5.06,1.85 -1.37,1.29 -2.06,2.8 -2.06,4.56 0,1.38 0.69,2.54 2.06,3.5 1.43,0.99 3.12,1.49 5.06,1.49 2.66,0 4.96,-0.45 6.9,-1.35 2,-0.91 3.26,-2.11 3.78,-3.64 1.24,0.71 2.19,1.58 2.86,2.57 0.71,1.05 1.06,2.08 1.06,3.13 0,1.24 -1.31,2.5 -3.92,3.78 -2.66,1.28 -5.27,1.93 -7.83,1.93 -3.66,0 -6.76,-1.26 -9.34,-3.78 -2.55,-2.47 -3.84,-5.48 -3.84,-9.05 0,-3.14 0.99,-5.82 2.99,-8.06 2.04,-2.22 4.49,-3.34 7.34,-3.34l5.69 0c1.58,0 2.93,-0.55 4.07,-1.63 1.09,-1.15 1.63,-2.5 1.63,-4.07l-20.29 0 0 0zm-1.72 42.39c0,-1.84 1.97,-4.58 5.91,-8.19 3.99,-3.56 7.01,-5.35 9.05,-5.35 1.76,0 3.71,1.51 5.84,4.49 2.15,3 4.12,6.96 5.93,11.91 0.09,0.32 0,0.64 -0.3,0.92 -0.32,0.33 -0.71,0.5 -1.14,0.5 -0.23,0 -0.47,-0.17 -0.71,-0.5 -0.28,-0.33 -0.53,-0.76 -0.71,-1.29 -1.04,-2.89 -2.25,-5.22 -3.63,-6.98 -1.39,-1.75 -2.67,-2.63 -3.84,-2.63 -1.49,0 -3.34,1 -5.57,2.99 -2.18,2.04 -4.49,4.84 -6.91,8.41 -1.24,-0.71 -2.18,-1.45 -2.84,-2.21 -0.72,-0.77 -1.08,-1.45 -1.08,-2.07l0 0zm29.57 -42.39l1.71 -5.7 18.24 0 -1.72 5.7 -4.05 0c-3.19,5.51 -5.59,10.5 -7.2,14.97 -1.66,4.46 -2.49,8.26 -2.49,11.39l0 7.12c-1.52,-0.51 -2.73,-1.44 -3.64,-2.77 -0.9,-1.29 -1.35,-2.73 -1.35,-4.35 0,-9.35 2.38,-18.14 7.12,-26.36l-6.62 0 0 0zm-11.33 -21.72c2.05,-1.19 4.18,-1.79 6.41,-1.79 4.8,0 8.91,1.74 12.32,5.2 3.43,3.47 5.14,7.67 5.14,12.61l-3.2 0c0,-3.13 -1.05,-5.81 -3.14,-8.05 -2.1,-2.24 -4.6,-3.35 -7.55,-3.35 -1.15,0 -2.24,0.19 -3.28,0.58 -1.05,0.32 -1.97,0.85 -2.79,1.56 -0.14,0.14 -0.35,0.05 -0.63,-0.28 -0.33,-0.29 -0.59,-0.67 -0.79,-1.14l-2.49 -5.34z"/>
   <path class="fil2" d="M115.06 510.63l11.48 0 8.46 26.41 0.15 0 8.54 -26.41 11.55 0 0 37.72 -8.78 0 0 -9.35 0.84 -17.22 -0.16 -0.03 -9.09 26.6 -5.9 0 -9.01 -26.38 -0.15 0.03 0.84 17 0 9.35 -8.77 0 0 -37.72zm68.3 37.72l-2.16 -7.35 -11.89 0 -2.14 7.35 -8.8 0 12.17 -37.72 9.42 0 12.2 37.72 -8.8 0 0 0zm-8.18 -27.59l-3.91 13.5 8.01 0 -3.96 -13.5 -0.14 0zm51.13 -10.13l0 37.72 -8.72 0 0 -15.17 -13.97 0 0 15.17 -8.78 0 0 -37.72 8.78 0 0 15.81 13.97 0 0 -15.81 8.72 0zm28.61 37.72l-2.17 -7.35 -11.88 0 -2.13 7.35 -8.81 0 12.18 -37.72 9.4 0 12.21 37.72 -8.8 0 0 0zm-8.17 -27.59l-3.93 13.5 8.01 0 -3.96 -13.5 -0.12 0 0 0zm34.61 -10.13l11.48 0 8.47 26.41 0.15 0 8.55 -26.41 11.54 0 0 37.72 -8.78 0 0 -9.35 0.83 -17.22 -0.16 -0.03 -9.08 26.6 -5.9 0 -9.01 -26.38 -0.15 0.03 0.84 17 0 9.35 -8.78 0 0 -37.72 0 0zm69.69 14.83l0 6.73 -14.8 0 0 9.42 17.42 0 0 6.74 -26.2 0 0 -37.72 26.26 0 0 6.75 -17.48 0 0 8.08 14.8 0zm33.43 -14.83l0 6.75 -9.94 0 0 30.97 -8.79 0 0 -30.97 -9.88 0 0 -6.75 28.61 0 0 0zm12.36 37.66l-8.78 0 0 -37.72 14.5 0c4.41,0 7.87,1.02 10.42,3.03 2.54,2.02 3.81,4.78 3.81,8.29 0,3.86 -2.03,6.67 -6.11,8.47 2.27,0.64 3.92,1.72 4.95,3.22 1.04,1.49 1.57,3.42 1.57,5.79l0 2.36c0,1.18 0.15,2.37 0.48,3.56 0.33,1.19 0.82,2.03 1.5,2.53l0 0.53 -9.04 0c-1.1,-0.89 -1.66,-3.1 -1.66,-6.62l0 -2.3c0,-1.81 -0.48,-3.18 -1.44,-4.12 -0.94,-0.94 -2.34,-1.42 -4.18,-1.42l-6.02 -0.06 0 14.46 0 0zm0 -30.91l0 9.78 5.76 0c1.76,0 3.11,-0.4 4.05,-1.2 0.93,-0.79 1.38,-1.96 1.38,-3.51 0,-1.54 -0.47,-2.77 -1.44,-3.69 -0.95,-0.92 -2.3,-1.38 -4.02,-1.38l-5.73 0 0 0zm48.7 15.57l0 -6.86c0,-2.76 -0.64,-4.98 -1.92,-6.67 -1.3,-1.69 -3.09,-2.53 -5.39,-2.53 -2.31,0 -4.09,0.83 -5.38,2.51 -1.27,1.68 -1.9,3.92 -1.9,6.69l0 6.86c0,2.79 0.63,5.04 1.94,6.74 1.29,1.69 3.09,2.52 5.37,2.52 2.31,0 4.08,-0.83 5.37,-2.52 1.27,-1.7 1.91,-3.95 1.91,-6.74l0 0zm8.72 -6.8l0 6.8c0,4.67 -1.47,8.52 -4.42,11.5 -2.95,3 -6.8,4.49 -11.55,4.49 -4.77,0 -8.63,-1.49 -11.6,-4.49 -2.98,-2.98 -4.47,-6.83 -4.47,-11.5l0 -6.8c0,-3.07 0.68,-5.82 2,-8.24 1.34,-2.43 3.24,-4.34 5.67,-5.71 2.45,-1.37 5.24,-2.06 8.37,-2.06 4.74,0 8.59,1.51 11.56,4.5 2.96,3 4.44,6.83 4.44,11.51z"/>
  </g>
 </g>
</svg>
